<mxfile host="app.diagrams.net" modified="2024-04-19T01:05:54.949Z" agent="Mozilla/5.0 (Windows NT 10.0; Win64; x64) AppleWebKit/537.36 (KHTML, like Gecko) Chrome/121.0.0.0 Safari/537.36" etag="RZ5fCmVyrAMCr5cOdEoW" version="24.2.5" type="device">
  <diagram name="Página-1" id="-ORBNwa4BvmrfPbF56hu">
    <mxGraphModel dx="1434" dy="790" grid="1" gridSize="10" guides="1" tooltips="1" connect="1" arrows="1" fold="1" page="1" pageScale="1" pageWidth="3300" pageHeight="4681" math="0" shadow="0">
      <root>
        <mxCell id="0" />
        <mxCell id="1" parent="0" />
        <mxCell id="8F3Y10cyQKoHuxOKLZiU-1" value="Cardiologia" style="shape=umlFrame;whiteSpace=wrap;html=1;pointerEvents=0;width=140;height=20;" vertex="1" parent="1">
          <mxGeometry x="780" y="90" width="480" height="450" as="geometry" />
        </mxCell>
        <mxCell id="8F3Y10cyQKoHuxOKLZiU-13" style="edgeStyle=orthogonalEdgeStyle;rounded=0;orthogonalLoop=1;jettySize=auto;html=1;exitX=0.5;exitY=0.5;exitDx=0;exitDy=0;exitPerimeter=0;entryX=0;entryY=0.5;entryDx=0;entryDy=0;endArrow=none;endFill=0;" edge="1" parent="1" source="8F3Y10cyQKoHuxOKLZiU-2" target="8F3Y10cyQKoHuxOKLZiU-11">
          <mxGeometry relative="1" as="geometry" />
        </mxCell>
        <mxCell id="8F3Y10cyQKoHuxOKLZiU-18" style="edgeStyle=orthogonalEdgeStyle;rounded=0;orthogonalLoop=1;jettySize=auto;html=1;exitX=1;exitY=0.3333333333333333;exitDx=0;exitDy=0;exitPerimeter=0;entryX=0;entryY=0.5;entryDx=0;entryDy=0;endArrow=none;endFill=0;" edge="1" parent="1" source="8F3Y10cyQKoHuxOKLZiU-2" target="8F3Y10cyQKoHuxOKLZiU-17">
          <mxGeometry relative="1" as="geometry" />
        </mxCell>
        <mxCell id="8F3Y10cyQKoHuxOKLZiU-22" style="edgeStyle=orthogonalEdgeStyle;rounded=0;orthogonalLoop=1;jettySize=auto;html=1;exitX=0;exitY=0.3333333333333333;exitDx=0;exitDy=0;exitPerimeter=0;entryX=0;entryY=0.5;entryDx=0;entryDy=0;endArrow=none;endFill=0;" edge="1" parent="1" source="8F3Y10cyQKoHuxOKLZiU-2" target="8F3Y10cyQKoHuxOKLZiU-21">
          <mxGeometry relative="1" as="geometry" />
        </mxCell>
        <mxCell id="8F3Y10cyQKoHuxOKLZiU-23" style="edgeStyle=orthogonalEdgeStyle;rounded=0;orthogonalLoop=1;jettySize=auto;html=1;exitX=1;exitY=1;exitDx=0;exitDy=0;exitPerimeter=0;entryX=0;entryY=0.5;entryDx=0;entryDy=0;endArrow=none;endFill=0;" edge="1" parent="1" source="8F3Y10cyQKoHuxOKLZiU-2" target="8F3Y10cyQKoHuxOKLZiU-15">
          <mxGeometry relative="1" as="geometry">
            <Array as="points">
              <mxPoint x="710" y="330" />
              <mxPoint x="850" y="330" />
              <mxPoint x="850" y="150" />
            </Array>
          </mxGeometry>
        </mxCell>
        <mxCell id="8F3Y10cyQKoHuxOKLZiU-2" value="Médico Docente" style="shape=umlActor;verticalLabelPosition=bottom;verticalAlign=top;html=1;" vertex="1" parent="1">
          <mxGeometry x="680" y="250" width="30" height="60" as="geometry" />
        </mxCell>
        <mxCell id="8F3Y10cyQKoHuxOKLZiU-14" style="edgeStyle=orthogonalEdgeStyle;rounded=0;orthogonalLoop=1;jettySize=auto;html=1;exitX=0.5;exitY=0.5;exitDx=0;exitDy=0;exitPerimeter=0;entryX=0.5;entryY=1;entryDx=0;entryDy=0;endArrow=none;endFill=0;" edge="1" parent="1" source="8F3Y10cyQKoHuxOKLZiU-3" target="8F3Y10cyQKoHuxOKLZiU-11">
          <mxGeometry relative="1" as="geometry">
            <Array as="points">
              <mxPoint x="890" y="430" />
              <mxPoint x="890" y="340" />
              <mxPoint x="1020" y="340" />
            </Array>
          </mxGeometry>
        </mxCell>
        <mxCell id="8F3Y10cyQKoHuxOKLZiU-20" style="edgeStyle=orthogonalEdgeStyle;rounded=0;orthogonalLoop=1;jettySize=auto;html=1;exitX=1;exitY=0.3333333333333333;exitDx=0;exitDy=0;exitPerimeter=0;entryX=0.5;entryY=1;entryDx=0;entryDy=0;endArrow=none;endFill=0;" edge="1" parent="1" source="8F3Y10cyQKoHuxOKLZiU-3" target="8F3Y10cyQKoHuxOKLZiU-17">
          <mxGeometry relative="1" as="geometry">
            <Array as="points">
              <mxPoint x="870" y="420" />
              <mxPoint x="870" y="280" />
              <mxPoint x="1090" y="280" />
            </Array>
          </mxGeometry>
        </mxCell>
        <mxCell id="8F3Y10cyQKoHuxOKLZiU-24" style="edgeStyle=orthogonalEdgeStyle;rounded=0;orthogonalLoop=1;jettySize=auto;html=1;exitX=0;exitY=0.3333333333333333;exitDx=0;exitDy=0;exitPerimeter=0;entryX=0.5;entryY=0;entryDx=0;entryDy=0;endArrow=none;endFill=0;" edge="1" parent="1" source="8F3Y10cyQKoHuxOKLZiU-3" target="8F3Y10cyQKoHuxOKLZiU-15">
          <mxGeometry relative="1" as="geometry">
            <Array as="points">
              <mxPoint x="680" y="390" />
              <mxPoint x="770" y="390" />
              <mxPoint x="770" y="120" />
              <mxPoint x="1055" y="120" />
            </Array>
          </mxGeometry>
        </mxCell>
        <mxCell id="8F3Y10cyQKoHuxOKLZiU-3" value="Médico Residente" style="shape=umlActor;verticalLabelPosition=bottom;verticalAlign=top;html=1;" vertex="1" parent="1">
          <mxGeometry x="680" y="400" width="30" height="60" as="geometry" />
        </mxCell>
        <mxCell id="8F3Y10cyQKoHuxOKLZiU-12" style="edgeStyle=orthogonalEdgeStyle;rounded=0;orthogonalLoop=1;jettySize=auto;html=1;exitX=0.5;exitY=0.5;exitDx=0;exitDy=0;exitPerimeter=0;entryX=1;entryY=0.5;entryDx=0;entryDy=0;endArrow=none;endFill=0;" edge="1" parent="1" source="8F3Y10cyQKoHuxOKLZiU-4" target="8F3Y10cyQKoHuxOKLZiU-11">
          <mxGeometry relative="1" as="geometry" />
        </mxCell>
        <mxCell id="8F3Y10cyQKoHuxOKLZiU-16" style="edgeStyle=orthogonalEdgeStyle;rounded=0;orthogonalLoop=1;jettySize=auto;html=1;exitX=0.5;exitY=0;exitDx=0;exitDy=0;exitPerimeter=0;entryX=1;entryY=0.5;entryDx=0;entryDy=0;endArrow=none;endFill=0;" edge="1" parent="1" source="8F3Y10cyQKoHuxOKLZiU-4" target="8F3Y10cyQKoHuxOKLZiU-15">
          <mxGeometry relative="1" as="geometry" />
        </mxCell>
        <mxCell id="8F3Y10cyQKoHuxOKLZiU-19" style="edgeStyle=orthogonalEdgeStyle;rounded=0;orthogonalLoop=1;jettySize=auto;html=1;exitX=0;exitY=0.3333333333333333;exitDx=0;exitDy=0;exitPerimeter=0;entryX=1;entryY=0.5;entryDx=0;entryDy=0;endArrow=none;endFill=0;" edge="1" parent="1" source="8F3Y10cyQKoHuxOKLZiU-4" target="8F3Y10cyQKoHuxOKLZiU-17">
          <mxGeometry relative="1" as="geometry" />
        </mxCell>
        <mxCell id="8F3Y10cyQKoHuxOKLZiU-4" value="Médico" style="shape=umlActor;verticalLabelPosition=bottom;verticalAlign=top;html=1;" vertex="1" parent="1">
          <mxGeometry x="1320" y="250" width="30" height="60" as="geometry" />
        </mxCell>
        <mxCell id="8F3Y10cyQKoHuxOKLZiU-7" style="edgeStyle=orthogonalEdgeStyle;rounded=0;orthogonalLoop=1;jettySize=auto;html=1;exitX=0.5;exitY=0.5;exitDx=0;exitDy=0;exitPerimeter=0;entryX=1;entryY=0.5;entryDx=0;entryDy=0;endArrow=none;endFill=0;" edge="1" parent="1" source="8F3Y10cyQKoHuxOKLZiU-5" target="8F3Y10cyQKoHuxOKLZiU-6">
          <mxGeometry relative="1" as="geometry" />
        </mxCell>
        <mxCell id="8F3Y10cyQKoHuxOKLZiU-5" value="Admistrador" style="shape=umlActor;verticalLabelPosition=bottom;verticalAlign=top;html=1;" vertex="1" parent="1">
          <mxGeometry x="1320" y="400" width="30" height="60" as="geometry" />
        </mxCell>
        <mxCell id="8F3Y10cyQKoHuxOKLZiU-6" value="Cadastrar os Médicos" style="ellipse;whiteSpace=wrap;html=1;" vertex="1" parent="1">
          <mxGeometry x="1100" y="410" width="100" height="40" as="geometry" />
        </mxCell>
        <mxCell id="8F3Y10cyQKoHuxOKLZiU-9" style="edgeStyle=orthogonalEdgeStyle;rounded=0;orthogonalLoop=1;jettySize=auto;html=1;exitX=0.5;exitY=1;exitDx=0;exitDy=0;entryX=0;entryY=0.5;entryDx=0;entryDy=0;endArrow=open;endFill=0;dashed=1;dashPattern=8 8;" edge="1" parent="1" source="8F3Y10cyQKoHuxOKLZiU-8" target="8F3Y10cyQKoHuxOKLZiU-6">
          <mxGeometry relative="1" as="geometry">
            <Array as="points">
              <mxPoint x="1055" y="430" />
            </Array>
          </mxGeometry>
        </mxCell>
        <mxCell id="8F3Y10cyQKoHuxOKLZiU-8" value="Cadastrar papéis específicos para os Médicos" style="ellipse;whiteSpace=wrap;html=1;" vertex="1" parent="1">
          <mxGeometry x="1000" y="360" width="110" height="60" as="geometry" />
        </mxCell>
        <mxCell id="8F3Y10cyQKoHuxOKLZiU-10" value="&amp;lt;include&amp;gt;" style="text;html=1;align=center;verticalAlign=middle;resizable=0;points=[];autosize=1;strokeColor=none;fillColor=none;" vertex="1" parent="1">
          <mxGeometry x="1030" y="430" width="80" height="30" as="geometry" />
        </mxCell>
        <mxCell id="8F3Y10cyQKoHuxOKLZiU-11" value="Emitir Pedido de Exame" style="ellipse;whiteSpace=wrap;html=1;" vertex="1" parent="1">
          <mxGeometry x="970" y="290" width="100" height="40" as="geometry" />
        </mxCell>
        <mxCell id="8F3Y10cyQKoHuxOKLZiU-15" value="Analisar arquivos" style="ellipse;whiteSpace=wrap;html=1;" vertex="1" parent="1">
          <mxGeometry x="1005" y="130" width="100" height="40" as="geometry" />
        </mxCell>
        <mxCell id="8F3Y10cyQKoHuxOKLZiU-17" value="Emitir Laudos" style="ellipse;whiteSpace=wrap;html=1;" vertex="1" parent="1">
          <mxGeometry x="1040" y="200" width="100" height="40" as="geometry" />
        </mxCell>
        <mxCell id="8F3Y10cyQKoHuxOKLZiU-21" value="Analisar Laudos do Residente" style="ellipse;whiteSpace=wrap;html=1;" vertex="1" parent="1">
          <mxGeometry x="880" y="160" width="100" height="40" as="geometry" />
        </mxCell>
        <mxCell id="8F3Y10cyQKoHuxOKLZiU-25" value="&lt;p style=&quot;margin:0px;margin-top:4px;text-align:center;&quot;&gt;&lt;b&gt;Medico&lt;/b&gt;&lt;/p&gt;&lt;hr size=&quot;1&quot; style=&quot;border-style:solid;&quot;&gt;&lt;p style=&quot;margin:0px;margin-left:4px;&quot;&gt;+ field: Type&lt;/p&gt;&lt;hr size=&quot;1&quot; style=&quot;border-style:solid;&quot;&gt;&lt;p style=&quot;margin:0px;margin-left:4px;&quot;&gt;+ method(): Type&lt;/p&gt;" style="verticalAlign=top;align=left;overflow=fill;html=1;whiteSpace=wrap;" vertex="1" parent="1">
          <mxGeometry x="620" y="910" width="180" height="120" as="geometry" />
        </mxCell>
        <mxCell id="8F3Y10cyQKoHuxOKLZiU-26" value="&lt;p style=&quot;margin:0px;margin-top:4px;text-align:center;&quot;&gt;&lt;b&gt;Docente&lt;/b&gt;&lt;/p&gt;&lt;hr size=&quot;1&quot; style=&quot;border-style:solid;&quot;&gt;&lt;p style=&quot;margin:0px;margin-left:4px;&quot;&gt;+ field: Type&lt;/p&gt;&lt;hr size=&quot;1&quot; style=&quot;border-style:solid;&quot;&gt;&lt;p style=&quot;margin:0px;margin-left:4px;&quot;&gt;+ method(): Type&lt;/p&gt;" style="verticalAlign=top;align=left;overflow=fill;html=1;whiteSpace=wrap;" vertex="1" parent="1">
          <mxGeometry x="480" y="1070" width="180" height="120" as="geometry" />
        </mxCell>
        <mxCell id="8F3Y10cyQKoHuxOKLZiU-27" value="&lt;p style=&quot;margin:0px;margin-top:4px;text-align:center;&quot;&gt;&lt;b&gt;Residente&lt;/b&gt;&lt;/p&gt;&lt;hr size=&quot;1&quot; style=&quot;border-style:solid;&quot;&gt;&lt;p style=&quot;margin:0px;margin-left:4px;&quot;&gt;+ field: Type&lt;/p&gt;&lt;hr size=&quot;1&quot; style=&quot;border-style:solid;&quot;&gt;&lt;p style=&quot;margin:0px;margin-left:4px;&quot;&gt;+ method(): Type&lt;/p&gt;" style="verticalAlign=top;align=left;overflow=fill;html=1;whiteSpace=wrap;" vertex="1" parent="1">
          <mxGeometry x="760" y="1070" width="180" height="120" as="geometry" />
        </mxCell>
      </root>
    </mxGraphModel>
  </diagram>
</mxfile>
